<svg width="26" height="26" viewBox="0 0 26 26" fill="#000000" xmlns="http://www.w3.org/2000/svg">
<g clip-path="url(#clip0)">
<path d="M12.7071 14.3539C16.5889 14.3539 19.7383 11.2045 19.7383 7.32266C19.7383 3.44083 16.5889 0.291412 12.7071 0.291412C8.82522 0.291412 5.6758 3.44083 5.6758 7.32266C5.6758 11.2045 8.82522 14.3539 12.7071 14.3539ZM18.9571 15.9164H16.2666C15.1826 16.4145 13.9766 16.6977 12.7071 16.6977C11.4375 16.6977 10.2364 16.4145 9.14748 15.9164H6.45705C3.00491 15.9164 0.207054 18.7143 0.207054 22.1664V22.9477C0.207054 24.2416 1.25686 25.2914 2.5508 25.2914H22.8633C24.1572 25.2914 25.2071 24.2416 25.2071 22.9477V22.1664C25.2071 18.7143 22.4092 15.9164 18.9571 15.9164Z" />
</g>
<defs>
<clipPath id="clip0">
<rect width="25" height="25" fill="white" transform="translate(0.207054 0.291412)"/>
</clipPath>
</defs>
</svg>
